M48
METRIC
T1C000.889
%
T001
X018213Y019445
X018213Y022045
X018213Y024545
X018213Y027145
X018213Y029645
X019413Y016945
X019413Y032145
X021913Y016945
X022013Y032145
X024513Y016945
X024513Y032145
X027013Y016945
X027113Y032145
X029613Y016945
X029613Y032145
X030913Y019445
X030913Y021945
X030913Y024545
X030913Y027045
X030913Y029645
M30
