%FSLAX33Y33*%
%MOMM*%
G04 EasyPC Gerber Version 15.0.4 Build 3016 *
%ADD24C,0.12700*%
%ADD23C,2.54000*%
X0Y0D02*
D02*
D23*
X18213Y19445D03*
Y22045D03*
Y24545D03*
Y27145D03*
Y29645D03*
X19413Y16945D03*
Y32145D03*
X21913Y16945D03*
X22013Y32145D03*
X24513Y16945D03*
Y32145D03*
X27013Y16945D03*
X27113Y32145D03*
X29613Y16945D03*
Y32145D03*
X30913Y19445D03*
Y21945D03*
Y24545D03*
Y27045D03*
Y29645D03*
D02*
D24*
X20753Y20953D02*
X21149Y21906D01*
X21546Y20953*
X20911Y21350D02*
X21388D01*
X20753Y23553D02*
X21149Y24506D01*
X21546Y23553*
X20911Y23950D02*
X21388D01*
X20753Y26053D02*
X21149Y27006D01*
X21546Y26053*
X20911Y26450D02*
X21388D01*
X20753Y28653D02*
X21149Y29606D01*
X21546Y28653*
X20911Y29050D02*
X21388D01*
X20753Y31153D02*
X21149Y32106D01*
X21546Y31153*
X20911Y31550D02*
X21388D01*
X21953Y18453D02*
X22349Y19406D01*
X22746Y18453*
X22111Y18850D02*
X22588D01*
X21953Y33653D02*
X22349Y34606D01*
X22746Y33653*
X22111Y34050D02*
X22588D01*
X24453Y18453D02*
X24849Y19406D01*
X25246Y18453*
X24611Y18850D02*
X25088D01*
X24553Y33653D02*
X24949Y34606D01*
X25346Y33653*
X24711Y34050D02*
X25188D01*
X27053Y18453D02*
X27449Y19406D01*
X27846Y18453*
X27211Y18850D02*
X27688D01*
X27053Y33653D02*
X27449Y34606D01*
X27846Y33653*
X27211Y34050D02*
X27688D01*
X29553Y18453D02*
X29949Y19406D01*
X30346Y18453*
X29711Y18850D02*
X30188D01*
X29653Y33653D02*
X30049Y34606D01*
X30446Y33653*
X29811Y34050D02*
X30288D01*
X32153Y18453D02*
X32549Y19406D01*
X32946Y18453*
X32311Y18850D02*
X32788D01*
X32153Y33653D02*
X32549Y34606D01*
X32946Y33653*
X32311Y34050D02*
X32788D01*
X33453Y20953D02*
X33849Y21906D01*
X34246Y20953*
X33611Y21350D02*
X34088D01*
X33453Y23453D02*
X33849Y24406D01*
X34246Y23453*
X33611Y23850D02*
X34088D01*
X33453Y26053D02*
X33849Y27006D01*
X34246Y26053*
X33611Y26450D02*
X34088D01*
X33453Y28553D02*
X33849Y29506D01*
X34246Y28553*
X33611Y28950D02*
X34088D01*
X33453Y31153D02*
X33849Y32106D01*
X34246Y31153*
X33611Y31550D02*
X34088D01*
X0Y0D02*
M02*
