%FSLAX33Y33*%
%MOMM*%
G04 EasyPC Gerber Version 15.0.4 Build 3016 *
%ADD79O,1.52400X3.00000*%
%ADD28R,0.40000X1.00000*%
%ADD24C,0.12700*%
%ADD78C,0.38100*%
%ADD77O,3.00000X1.52400*%
%ADD27R,1.00000X0.40000*%
X0Y0D02*
D02*
D24*
X16313Y34045D02*
Y14945D01*
X32913*
Y34045*
X16313*
D02*
D27*
X21013Y22745D03*
Y23645D03*
Y24545D03*
Y25445D03*
Y26345D03*
X28013Y22745D03*
Y23645D03*
Y24545D03*
Y25445D03*
Y26345D03*
D02*
D28*
X22713Y21045D03*
Y28045D03*
X23613Y21045D03*
Y28045D03*
X24513Y21045D03*
Y28045D03*
X25413Y21045D03*
Y28045D03*
X26313Y21045D03*
Y28045D03*
D02*
D77*
X18213Y19445D03*
Y22045D03*
Y24545D03*
Y27145D03*
Y29645D03*
X30913Y19445D03*
Y21945D03*
Y24545D03*
Y27045D03*
Y29645D03*
D02*
D78*
X18213Y27145D02*
X20013D01*
Y25445*
X21013*
X18213Y29645D02*
Y28445D01*
X20713*
Y26545*
X21013Y26345*
Y22745D02*
X20513D01*
Y20645*
X18213*
Y19445*
X21013Y23645D02*
X19913D01*
Y22045*
X18213*
X21013Y24545D02*
X18213D01*
X22713Y21045D02*
Y19745D01*
X20613*
Y16945*
X19413*
X22713Y28045D02*
Y29545D01*
X20513*
Y32145*
X19413*
X23613Y21045D02*
Y19045D01*
X21913*
Y16945*
X23613Y28045D02*
Y30245D01*
X22013*
Y32145*
X24513Y21045D02*
Y16945D01*
Y28045D02*
Y32145D01*
X25413Y21045D02*
Y19045D01*
X27013*
Y16945*
X25413Y28045D02*
Y30245D01*
X27113*
Y32145*
X26313Y21045D02*
Y19745D01*
X28313*
Y16945*
X29613*
X26313Y28045D02*
Y29345D01*
X28413*
Y32145*
X29613*
X28013Y22745D02*
X28313D01*
Y20545*
X30913*
Y19445*
X28013Y23645D02*
X29013D01*
Y21945*
X30913*
X28013Y24545D02*
X30913D01*
X28013Y25445D02*
X29013D01*
Y27045*
X30913*
X28013Y26345D02*
X28313D01*
Y28445*
X30913*
Y29645*
D02*
D79*
X19413Y16945D03*
Y32145D03*
X21913Y16945D03*
X22013Y32145D03*
X24513Y16945D03*
Y32145D03*
X27013Y16945D03*
X27113Y32145D03*
X29613Y16945D03*
Y32145D03*
X0Y0D02*
M02*
